<?xml version="1.0" encoding="utf-8"?>
<!-- Generator: Adobe Illustrator 21.1.0, SVG Export Plug-In . SVG Version: 6.00 Build 0)  -->
<svg version="1.1" xmlns="http://www.w3.org/2000/svg" xmlns:xlink="http://www.w3.org/1999/xlink" x="0px" y="0px"
	 viewBox="0 0 648 432" style="enable-background:new 0 0 648 432;" xml:space="preserve">
<style type="text/css">
	.st0{fill:none;stroke:#000000;stroke-width:2;stroke-miterlimit:10;}
	.st1{fill:none;stroke:#FFFFFF;stroke-width:2;stroke-miterlimit:10;}
	.st2{fill:#FFFFFF;}
	.st3{fill:none;stroke:#FFFFFF;stroke-miterlimit:10;}
</style>
<g id="Layer_5">
	<g>
		<path d="M292.7,522.2v78.6H271v-44.6l-14.6,44.6h-18.8L223,556.2v44.6h-22v-78.6h26.9l19.4,51l18.8-51H292.7z"/>
		<path d="M292.4,565.5h41.3c-0.4-7.1-3.5-10.6-9.2-10.6c-2.2,0-3.9,0.5-5.3,1.6c-1.4,1-2.4,2.4-2.9,4.1h-23.2
			c0.8-4.4,2.6-8.3,5.5-11.9c2.8-3.5,6.4-6.3,10.7-8.3c4.3-2,9-3,14.2-3c6.2,0,11.8,1.3,16.5,3.8c4.8,2.6,8.5,6.3,11.2,11.1
			c2.7,4.9,4,10.6,4,17.1c0,6.5-1.3,12.2-4,17.1c-2.7,4.8-6.4,8.5-11.3,11.1c-4.8,2.6-10.3,3.8-16.5,3.8c-6.2,0-11.7-1.3-16.5-3.8
			c-4.8-2.5-8.5-6.1-11.1-10.8c-2.6-4.7-4-10.1-4-16.3C291.8,569.1,292,567.4,292.4,565.5z M316.7,581.9c1.8,1.6,4,2.5,6.7,2.5
			c2.9,0,5.3-0.8,7.1-2.5c1.8-1.6,2.9-4.1,3.2-7.2h-19.5C314.1,577.8,314.9,580.3,316.7,581.9z"/>
	</g>
</g>
<g id="Layer_6">
	<g>
		<polygon points="309.4,609.1 300,642.2 290.5,609.1 271.8,609.1 289.1,659.1 295.5,659.1 318.9,635.8 328,609.1 		"/>
		<path d="M377.7,647.7c-1.9-2.1-4.1-3.7-6.6-4.6c-2.5-1-5.7-1.8-9.6-2.7c-3.3-0.8-5.7-1.5-7.2-2.1c-1.5-0.6-2.2-1.6-2.2-2.8
			c0-1,0.3-1.8,1-2.4c0.7-0.6,1.7-0.8,3-0.8c1.8,0,3.4,0.4,4.7,1.3c1.3,0.9,2.1,2.2,2.5,4h16.4c-1-5.3-3.5-9.5-7.4-12.7
			c-3.7-3-8.6-4.6-14.6-4.8l-20.5,20.5c0.4,1.2,1.1,2.3,1.9,3.3c1.8,2.1,3.9,3.5,6.4,4.5c2.4,0.9,5.6,1.8,9.4,2.5
			c3.3,0.7,5.8,1.3,7.3,2c1.5,0.7,2.3,1.7,2.3,3.1c0,1-0.4,1.7-1.1,2.3c-0.7,0.6-1.8,0.9-3.1,0.9c-2,0-3.7-0.4-5-1.3
			c-1.3-0.9-2.1-2.3-2.4-4.1h-16.9c0.9,5.6,3.4,10,7.6,13c4.2,3,9.7,4.5,16.8,4.5c4.2,0,7.8-0.6,10.8-1.9c3.1-1.3,5.4-3,7-5.3
			c1.6-2.3,2.4-4.8,2.4-7.8C380.5,652.7,379.5,649.8,377.7,647.7z"/>
		<g>
			<polygon points="295.5,659.1 294.9,658.4 384.7,568.6 386,569.9 			"/>
		</g>
		<g>
			<polygon points="265.1,714 263.8,712.7 357.7,620.1 358.4,620.7 			"/>
		</g>
	</g>
</g>
<g id="Layer_7">
	<g>
		<path d="M406.8,675.3l0.4,78.6l-21.7,0.1l-0.2-44.6L370.9,754l-18.8,0.1l-14.8-44.5l0.2,44.6l-22,0.1l-0.4-78.6l26.9-0.1
			l19.7,50.9l18.6-51.1L406.8,675.3z"/>
		<path d="M468.9,726.2l-41.3,0.2c0.4,7.1,3.5,10.6,9.3,10.5c2.2,0,3.9-0.5,5.3-1.6c1.4-1,2.4-2.4,2.9-4.1l23.2-0.1
			c-0.8,4.4-2.6,8.4-5.4,11.9c-2.8,3.5-6.4,6.3-10.7,8.4c-4.3,2-9,3.1-14.1,3.1c-6.2,0-11.8-1.2-16.6-3.8
			c-4.8-2.5-8.6-6.2-11.3-11.1c-2.7-4.9-4.1-10.5-4.1-17.1c0-6.5,1.3-12.2,3.9-17.1c2.6-4.8,6.4-8.6,11.2-11.1
			c4.8-2.6,10.3-3.9,16.5-3.9c6.2,0,11.7,1.2,16.5,3.7c4.8,2.5,8.5,6.1,11.1,10.8c2.7,4.7,4,10.1,4,16.2
			C469.5,722.6,469.3,724.3,468.9,726.2z M444.5,710c-1.8-1.6-4-2.4-6.7-2.4c-2.9,0-5.3,0.8-7.1,2.5c-1.8,1.6-2.9,4.1-3.1,7.3
			l19.5-0.1C447.2,714,446.3,711.6,444.5,710z"/>
	</g>
	<rect x="168.6" y="476.8" class="st0" width="330.5" height="330.5"/>
</g>
<g id="Layer_4">
	<rect x="165" y="53.8" class="st0" width="330.5" height="330.5"/>
	<g>
		<path d="M384.1,262.6l0.4,78.6l-21.7,0.1l-0.2-44.6l-14.4,44.7l-18.8,0.1L314.5,297l0.2,44.6l-22,0.1l-0.4-78.6l26.9-0.1
			l19.7,50.9l18.6-51.1L384.1,262.6z"/>
		<path d="M446.2,313.6l-41.3,0.2c0.4,7.1,3.5,10.6,9.3,10.5c2.2,0,3.9-0.5,5.3-1.6c1.4-1,2.4-2.4,2.9-4.1l23.2-0.1
			c-0.8,4.4-2.6,8.4-5.4,11.9c-2.8,3.5-6.4,6.3-10.7,8.4c-4.3,2-9,3.1-14.1,3.1c-6.2,0-11.8-1.2-16.6-3.8
			c-4.8-2.5-8.6-6.2-11.3-11.1c-2.7-4.9-4.1-10.5-4.1-17.1c0-6.5,1.3-12.2,3.9-17.1c2.6-4.8,6.4-8.6,11.2-11.1
			c4.8-2.6,10.3-3.9,16.5-3.9c6.2,0,11.7,1.2,16.5,3.7c4.8,2.5,8.5,6.1,11.1,10.8c2.7,4.7,4,10.1,4,16.2
			C446.8,310,446.6,311.7,446.2,313.6z M421.8,297.3c-1.8-1.6-4-2.4-6.7-2.4c-2.9,0-5.3,0.8-7.1,2.5c-1.8,1.6-2.9,4.1-3.1,7.3
			l19.5-0.1C424.5,301.3,423.6,298.9,421.8,297.3z"/>
	</g>
	<g>
		<polygon points="322.2,180.9 312.7,214.1 303.3,180.9 284.6,180.9 301.9,231 308.3,231 331.6,207.6 340.8,180.9 		"/>
		<path d="M355,239c-1.9-2.1-4.1-3.7-6.6-4.6c-2.5-1-5.7-1.8-9.6-2.7c-3.3-0.8-5.7-1.5-7.2-2.1c-1.5-0.6-2.2-1.6-2.2-2.8
			c0-1,0.3-1.8,1-2.4c0.7-0.6,1.7-0.8,3-0.8c1.8,0,3.4,0.4,4.7,1.3c1.3,0.9,2.1,2.2,2.5,4h16.4c-1-5.3-3.5-9.5-7.4-12.7
			c-3.7-3-8.6-4.6-14.6-4.8l-20.5,20.5c0.4,1.2,1.1,2.3,1.9,3.3c1.8,2.1,3.9,3.5,6.4,4.5c2.4,0.9,5.6,1.8,9.4,2.5
			c3.3,0.7,5.8,1.3,7.3,2c1.5,0.7,2.3,1.7,2.3,3.1c0,1-0.4,1.7-1.1,2.3c-0.7,0.6-1.8,0.9-3.1,0.9c-2,0-3.7-0.4-5-1.3
			c-1.3-0.9-2.1-2.3-2.4-4.1h-16.9c0.9,5.6,3.4,10,7.6,13c4.2,3,9.7,4.5,16.8,4.5c4.2,0,7.8-0.6,10.8-1.9c3.1-1.3,5.4-3,7-5.3
			c1.6-2.3,2.4-4.8,2.4-7.8C357.8,244,356.8,241.1,355,239z"/>
		<g>
			<polygon points="308.3,231 307.7,230.3 397.5,140.5 398.8,141.8 			"/>
		</g>
		<g>
			<polygon points="242.4,305.3 241.1,304 335.1,211.4 335.7,212.1 			"/>
		</g>
	</g>
	<g>
		<path d="M305.4,96.2v78.6h-21.7v-44.6l-14.6,44.6h-18.8l-14.6-44.6v44.6h-22V96.2h26.9l19.4,51l18.8-51H305.4z"/>
		<path d="M305.1,139.5h41.3c-0.4-7.1-3.5-10.6-9.2-10.6c-2.2,0-3.9,0.5-5.3,1.6c-1.4,1-2.4,2.4-2.9,4.1h-23.2
			c0.8-4.4,2.6-8.3,5.5-11.9c2.8-3.5,6.4-6.3,10.7-8.3c4.3-2,9-3,14.2-3c6.2,0,11.8,1.3,16.5,3.8c4.8,2.6,8.5,6.3,11.2,11.1
			c2.7,4.9,4,10.6,4,17.1c0,6.5-1.3,12.2-4,17.1c-2.7,4.8-6.4,8.5-11.3,11.1c-4.8,2.6-10.3,3.8-16.5,3.8c-6.2,0-11.7-1.3-16.5-3.8
			c-4.8-2.5-8.5-6.1-11.1-10.8c-2.6-4.7-4-10.1-4-16.3C304.5,143.1,304.7,141.4,305.1,139.5z M329.4,155.9c1.8,1.6,4,2.5,6.7,2.5
			c2.9,0,5.3-0.8,7.1-2.5c1.8-1.6,2.9-4.1,3.2-7.2h-19.5C326.7,151.9,327.6,154.3,329.4,155.9z"/>
	</g>
	<rect x="165" y="-401.3" class="st1" width="330.5" height="330.5"/>
	<g>
		<path class="st2" d="M384.1-192.4l0.4,78.6l-21.7,0.1l-0.2-44.6l-14.4,44.7l-18.8,0.1l-14.8-44.5l0.2,44.6l-22,0.1l-0.4-78.6
			l26.9-0.1l19.7,50.9l18.6-51.1L384.1-192.4z"/>
		<path class="st2" d="M446.2-141.5l-41.3,0.2c0.4,7.1,3.5,10.6,9.3,10.5c2.2,0,3.9-0.5,5.3-1.6c1.4-1,2.4-2.4,2.9-4.1l23.2-0.1
			c-0.8,4.4-2.6,8.4-5.4,11.9c-2.8,3.5-6.4,6.3-10.7,8.4c-4.3,2-9,3.1-14.1,3.1c-6.2,0-11.8-1.2-16.6-3.8
			c-4.8-2.5-8.6-6.2-11.3-11.1c-2.7-4.9-4.1-10.5-4.1-17.1c0-6.5,1.3-12.2,3.9-17.1c2.6-4.8,6.4-8.6,11.2-11.1
			c4.8-2.6,10.3-3.9,16.5-3.9c6.2,0,11.7,1.2,16.5,3.7c4.8,2.5,8.5,6.1,11.1,10.8c2.7,4.7,4,10.1,4,16.2
			C446.8-145.1,446.6-143.4,446.2-141.5z M421.8-157.8c-1.8-1.6-4-2.4-6.7-2.4c-2.9,0-5.3,0.8-7.1,2.5c-1.8,1.6-2.9,4.1-3.1,7.3
			l19.5-0.1C424.5-153.7,423.6-156.1,421.8-157.8z"/>
	</g>
	<g>
		<polygon class="st2" points="322.2,-274.1 312.7,-241 303.3,-274.1 284.6,-274.1 301.9,-224.1 308.3,-224.1 331.6,-247.4 
			340.8,-274.1 		"/>
		<path class="st2" d="M355-216.1c-1.9-2.1-4.1-3.7-6.6-4.6c-2.5-1-5.7-1.8-9.6-2.7c-3.3-0.8-5.7-1.5-7.2-2.1
			c-1.5-0.6-2.2-1.6-2.2-2.8c0-1,0.3-1.8,1-2.4c0.7-0.6,1.7-0.8,3-0.8c1.8,0,3.4,0.4,4.7,1.3c1.3,0.9,2.1,2.2,2.5,4h16.4
			c-1-5.3-3.5-9.5-7.4-12.7c-3.7-3-8.6-4.6-14.6-4.8l-20.5,20.5c0.4,1.2,1.1,2.3,1.9,3.3c1.8,2.1,3.9,3.5,6.4,4.5
			c2.4,0.9,5.6,1.8,9.4,2.5c3.3,0.7,5.8,1.3,7.3,2c1.5,0.7,2.3,1.7,2.3,3.1c0,1-0.4,1.7-1.1,2.3c-0.7,0.6-1.8,0.9-3.1,0.9
			c-2,0-3.7-0.4-5-1.3c-1.3-0.9-2.1-2.3-2.4-4.1h-16.9c0.9,5.6,3.4,10,7.6,13c4.2,3,9.7,4.5,16.8,4.5c4.2,0,7.8-0.6,10.8-1.9
			c3.1-1.3,5.4-3,7-5.3c1.6-2.3,2.4-4.8,2.4-7.8C357.8-211,356.8-213.9,355-216.1z"/>
		<g>
			<polygon class="st2" points="308.3,-224.1 307.7,-224.8 397.5,-314.6 398.8,-313.3 			"/>
		</g>
		<g>
			<polygon class="st2" points="242.4,-149.7 241.1,-151.1 335.1,-243.7 335.7,-243 			"/>
		</g>
	</g>
	<g>
		<path class="st2" d="M305.4-358.9v78.6h-21.7v-44.6l-14.6,44.6h-18.8l-14.6-44.6v44.6h-22v-78.6h26.9l19.4,51l18.8-51H305.4z"/>
		<path class="st2" d="M305.1-315.5h41.3c-0.4-7.1-3.5-10.6-9.2-10.6c-2.2,0-3.9,0.5-5.3,1.6c-1.4,1-2.4,2.4-2.9,4.1h-23.2
			c0.8-4.4,2.6-8.3,5.5-11.9c2.8-3.5,6.4-6.3,10.7-8.3c4.3-2,9-3,14.2-3c6.2,0,11.8,1.3,16.5,3.8c4.8,2.6,8.5,6.3,11.2,11.1
			c2.7,4.9,4,10.6,4,17.1c0,6.5-1.3,12.2-4,17.1c-2.7,4.8-6.4,8.5-11.3,11.1c-4.8,2.6-10.3,3.8-16.5,3.8c-6.2,0-11.7-1.3-16.5-3.8
			c-4.8-2.5-8.5-6.1-11.1-10.8c-2.6-4.7-4-10.1-4-16.3C304.5-312,304.7-313.7,305.1-315.5z M329.4-299.2c1.8,1.6,4,2.5,6.7,2.5
			c2.9,0,5.3-0.8,7.1-2.5c1.8-1.6,2.9-4.1,3.2-7.2h-19.5C326.7-303.2,327.6-300.8,329.4-299.2z"/>
	</g>
</g>
<g id="Layer_10">
</g>
<g id="Layer_8">
	<g id="L1GI8h.tif">
		
			<image style="overflow:visible;" width="560" height="700" id="Layer_0_1_" xlink:href="9F9D161D7B3C4ADC.png"  transform="matrix(1 0 0 1 -643.2241 -94.9541)">
		</image>
	</g>
	<g>
		<path class="st2" d="M-340.2,216.2l0.2,31.3l-8.7,0l-0.1-17.8l-5.7,17.8l-7.5,0l-5.9-17.8l0.1,17.8l-8.8,0l-0.2-31.3l10.7-0.1
			l7.8,20.3l7.4-20.4L-340.2,216.2z"/>
		<path class="st2" d="M-315.4,236.5l-16.5,0.1c0.2,2.8,1.4,4.2,3.7,4.2c0.9,0,1.6-0.2,2.1-0.6c0.6-0.4,0.9-1,1.1-1.7l9.2,0
			c-0.3,1.8-1,3.3-2.2,4.7c-1.1,1.4-2.5,2.5-4.3,3.3c-1.7,0.8-3.6,1.2-5.6,1.2c-2.5,0-4.7-0.5-6.6-1.5c-1.9-1-3.4-2.5-4.5-4.4
			c-1.1-1.9-1.6-4.2-1.6-6.8c0-2.6,0.5-4.9,1.6-6.8c1.1-1.9,2.5-3.4,4.5-4.4c1.9-1,4.1-1.6,6.6-1.6c2.5,0,4.7,0.5,6.6,1.5
			c1.9,1,3.4,2.4,4.4,4.3c1.1,1.9,1.6,4,1.6,6.5C-315.2,235.1-315.2,235.8-315.4,236.5z M-325.1,230c-0.7-0.6-1.6-1-2.7-1
			c-1.2,0-2.1,0.3-2.8,1c-0.7,0.7-1.1,1.6-1.3,2.9l7.8,0C-324,231.7-324.4,230.7-325.1,230z"/>
	</g>
	<rect x="-427.6" y="132.9" class="st1" width="131.9" height="131.9"/>
	<g>
		<polygon class="st2" points="-364.9,183.6 -368.6,196.9 -372.4,183.6 -379.9,183.6 -373,203.6 -370.4,203.6 -361.1,194.3 
			-357.4,183.6 		"/>
		<path class="st2" d="M-351.8,206.8c-0.7-0.9-1.6-1.5-2.6-1.8c-1-0.4-2.3-0.7-3.8-1.1c-1.3-0.3-2.3-0.6-2.9-0.8
			c-0.6-0.2-0.9-0.6-0.9-1.1c0-0.4,0.1-0.7,0.4-0.9c0.3-0.2,0.7-0.3,1.2-0.3c0.7,0,1.4,0.2,1.9,0.5c0.5,0.4,0.8,0.9,1,1.6h6.5
			c-0.4-2.1-1.4-3.8-3-5.1c-1.5-1.2-3.4-1.8-5.8-1.9l-8.2,8.2c0.2,0.5,0.4,0.9,0.7,1.3c0.7,0.8,1.6,1.4,2.5,1.8c1,0.4,2.2,0.7,3.7,1
			c1.3,0.3,2.3,0.5,2.9,0.8c0.6,0.3,0.9,0.7,0.9,1.2c0,0.4-0.1,0.7-0.4,0.9c-0.3,0.2-0.7,0.4-1.2,0.4c-0.8,0-1.5-0.2-2-0.5
			c-0.5-0.4-0.8-0.9-0.9-1.6h-6.7c0.4,2.3,1.4,4,3,5.2c1.7,1.2,3.9,1.8,6.7,1.8c1.7,0,3.1-0.3,4.3-0.8c1.2-0.5,2.2-1.2,2.8-2.1
			c0.6-0.9,1-1.9,1-3.1C-350.7,208.8-351,207.6-351.8,206.8z"/>
		<g>
			<polygon class="st2" points="-370.4,203.6 -370.7,203.3 -334.8,167.5 -334.3,168 			"/>
		</g>
		<g>
			<polygon class="st2" points="-396.7,233.2 -397.2,232.7 -359.7,195.8 -359.5,196 			"/>
		</g>
	</g>
	<g>
		<path class="st2" d="M-371.6,149.8v31.3h-8.7v-17.8l-5.8,17.8h-7.5l-5.8-17.8v17.8h-8.8v-31.3h10.7l7.7,20.4l7.5-20.4H-371.6z"/>
		<path class="st2" d="M-371.7,167.1h16.5c-0.1-2.8-1.4-4.2-3.7-4.2c-0.9,0-1.6,0.2-2.1,0.6c-0.6,0.4-0.9,1-1.2,1.6h-9.2
			c0.3-1.7,1.1-3.3,2.2-4.7c1.1-1.4,2.5-2.5,4.3-3.3c1.7-0.8,3.6-1.2,5.6-1.2c2.5,0,4.7,0.5,6.6,1.5c1.9,1,3.4,2.5,4.5,4.4
			c1.1,1.9,1.6,4.2,1.6,6.8c0,2.6-0.5,4.9-1.6,6.8c-1.1,1.9-2.6,3.4-4.5,4.4c-1.9,1-4.1,1.5-6.6,1.5c-2.5,0-4.7-0.5-6.6-1.5
			c-1.9-1-3.4-2.4-4.4-4.3c-1.1-1.9-1.6-4-1.6-6.5C-371.9,168.5-371.9,167.8-371.7,167.1z M-362,173.6c0.7,0.7,1.6,1,2.7,1
			c1.2,0,2.1-0.3,2.8-1c0.7-0.7,1.1-1.6,1.3-2.9h-7.8C-363.1,172-362.7,173-362,173.6z"/>
	</g>
</g>
<g id="Layer_9">
	<g id="L1GI8h.tif_1_">
		
			<image style="overflow:visible;" width="560" height="700" id="Layer_0_2_" xlink:href="9F9D161D7B3C4ADF.png"  transform="matrix(1 0 0 1 716.1373 -97.7302)">
		</image>
	</g>
	<g>
		<path class="st2" d="M1070,149.1l0.1,10l-2.8,0l0-5.7l-1.8,5.7l-2.4,0l-1.9-5.6l0,5.7l-2.8,0l-0.1-10l3.4,0l2.5,6.5l2.4-6.5
			L1070,149.1z"/>
		<path class="st2" d="M1077.9,155.5l-5.2,0c0.1,0.9,0.4,1.3,1.2,1.3c0.3,0,0.5-0.1,0.7-0.2c0.2-0.1,0.3-0.3,0.4-0.5l2.9,0
			c-0.1,0.6-0.3,1.1-0.7,1.5c-0.4,0.4-0.8,0.8-1.4,1.1c-0.5,0.3-1.1,0.4-1.8,0.4c-0.8,0-1.5-0.2-2.1-0.5c-0.6-0.3-1.1-0.8-1.4-1.4
			c-0.3-0.6-0.5-1.3-0.5-2.2c0-0.8,0.2-1.6,0.5-2.2c0.3-0.6,0.8-1.1,1.4-1.4c0.6-0.3,1.3-0.5,2.1-0.5c0.8,0,1.5,0.2,2.1,0.5
			c0.6,0.3,1.1,0.8,1.4,1.4c0.3,0.6,0.5,1.3,0.5,2.1C1077.9,155.1,1077.9,155.3,1077.9,155.5z M1074.8,153.5
			c-0.2-0.2-0.5-0.3-0.8-0.3c-0.4,0-0.7,0.1-0.9,0.3c-0.2,0.2-0.4,0.5-0.4,0.9l2.5,0C1075.1,154,1075,153.7,1074.8,153.5z"/>
	</g>
	<rect x="1042.2" y="122.6" class="st3" width="41.9" height="41.9"/>
	<g>
		<polygon class="st2" points="1062.1,138.7 1060.9,142.9 1059.7,138.7 1057.4,138.7 1059.5,145 1060.4,145 1063.3,142.1 
			1064.5,138.7 		"/>
		<path class="st2" d="M1066.3,146.1c-0.2-0.3-0.5-0.5-0.8-0.6c-0.3-0.1-0.7-0.2-1.2-0.3c-0.4-0.1-0.7-0.2-0.9-0.3
			c-0.2-0.1-0.3-0.2-0.3-0.4c0-0.1,0-0.2,0.1-0.3c0.1-0.1,0.2-0.1,0.4-0.1c0.2,0,0.4,0.1,0.6,0.2c0.2,0.1,0.3,0.3,0.3,0.5h2.1
			c-0.1-0.7-0.4-1.2-0.9-1.6c-0.5-0.4-1.1-0.6-1.9-0.6l-2.6,2.6c0.1,0.2,0.1,0.3,0.2,0.4c0.2,0.3,0.5,0.4,0.8,0.6
			c0.3,0.1,0.7,0.2,1.2,0.3c0.4,0.1,0.7,0.2,0.9,0.2c0.2,0.1,0.3,0.2,0.3,0.4c0,0.1,0,0.2-0.1,0.3c-0.1,0.1-0.2,0.1-0.4,0.1
			c-0.3,0-0.5-0.1-0.6-0.2c-0.2-0.1-0.3-0.3-0.3-0.5h-2.1c0.1,0.7,0.4,1.3,1,1.7c0.5,0.4,1.2,0.6,2.1,0.6c0.5,0,1-0.1,1.4-0.2
			c0.4-0.2,0.7-0.4,0.9-0.7c0.2-0.3,0.3-0.6,0.3-1C1066.6,146.7,1066.5,146.3,1066.3,146.1z"/>
		<g>
			<polygon class="st2" points="1060.4,145 1060.3,145 1071.7,133.6 1071.8,133.7 			"/>
		</g>
		<g>
			<polygon class="st2" points="1052,154.5 1051.8,154.3 1063.8,142.6 1063.8,142.6 			"/>
		</g>
	</g>
	<g>
		<path class="st2" d="M1060,128v10h-2.8v-5.7l-1.9,5.7h-2.4l-1.9-5.7v5.7h-2.8v-10h3.4l2.5,6.5l2.4-6.5H1060z"/>
		<path class="st2" d="M1060,133.5h5.2c0-0.9-0.4-1.3-1.2-1.3c-0.3,0-0.5,0.1-0.7,0.2c-0.2,0.1-0.3,0.3-0.4,0.5h-2.9
			c0.1-0.6,0.3-1.1,0.7-1.5c0.4-0.4,0.8-0.8,1.4-1.1c0.5-0.3,1.1-0.4,1.8-0.4c0.8,0,1.5,0.2,2.1,0.5c0.6,0.3,1.1,0.8,1.4,1.4
			c0.3,0.6,0.5,1.3,0.5,2.2c0,0.8-0.2,1.5-0.5,2.2c-0.3,0.6-0.8,1.1-1.4,1.4c-0.6,0.3-1.3,0.5-2.1,0.5c-0.8,0-1.5-0.2-2.1-0.5
			c-0.6-0.3-1.1-0.8-1.4-1.4s-0.5-1.3-0.5-2.1C1059.9,133.9,1059.9,133.7,1060,133.5z M1063,135.5c0.2,0.2,0.5,0.3,0.8,0.3
			c0.4,0,0.7-0.1,0.9-0.3c0.2-0.2,0.4-0.5,0.4-0.9h-2.5C1062.7,135,1062.8,135.3,1063,135.5z"/>
	</g>
</g>
</svg>
