<?xml version="1.0" encoding="utf-8"?>
<!-- Generator: Adobe Illustrator 22.1.0, SVG Export Plug-In . SVG Version: 6.00 Build 0)  -->
<svg version="1.1" id="Layer_1" xmlns="http://www.w3.org/2000/svg" xmlns:xlink="http://www.w3.org/1999/xlink" x="0px" y="0px"
	 viewBox="0 0 100 100" style="enable-background:new 0 0 100 100;" xml:space="preserve">
<style type="text/css">
	.st0{fill:none;stroke:#000000;stroke-width:2;stroke-miterlimit:10;}
</style>
<rect class="st0" width="100" height="100"/>
<g>
	<path d="M66.3,63.2L66.4,87l-6.6,0l-0.1-13.5L55.4,87l-5.7,0l-4.5-13.5l0.1,13.5l-6.6,0l-0.1-23.8l8.1,0l6,15.4l5.6-15.5L66.3,63.2
		z"/>
	<path d="M85.1,78.6l-12.5,0.1c0.1,2.1,1.1,3.2,2.8,3.2c0.7,0,1.2-0.2,1.6-0.5c0.4-0.3,0.7-0.7,0.9-1.3l7,0
		c-0.2,1.3-0.8,2.5-1.6,3.6c-0.8,1.1-1.9,1.9-3.2,2.5c-1.3,0.6-2.7,0.9-4.3,0.9c-1.9,0-3.6-0.4-5-1.1c-1.5-0.8-2.6-1.9-3.4-3.4
		c-0.8-1.5-1.2-3.2-1.2-5.2c0-2,0.4-3.7,1.2-5.2c0.8-1.5,1.9-2.6,3.4-3.4c1.5-0.8,3.1-1.2,5-1.2c1.9,0,3.6,0.4,5,1.1
		c1.4,0.8,2.6,1.8,3.4,3.3c0.8,1.4,1.2,3.1,1.2,4.9C85.3,77.5,85.2,78.1,85.1,78.6z M77.7,73.7c-0.5-0.5-1.2-0.7-2-0.7
		c-0.9,0-1.6,0.3-2.1,0.8c-0.5,0.5-0.9,1.2-0.9,2.2l5.9,0C78.5,74.9,78.3,74.2,77.7,73.7z"/>
</g>
<g>
	<polygon points="47.6,38.5 44.7,48.5 41.9,38.5 36.2,38.5 41.4,53.6 43.4,53.6 50.4,46.6 53.2,38.5 	"/>
	<path d="M57.5,56.1c-0.6-0.6-1.2-1.1-2-1.4c-0.8-0.3-1.7-0.6-2.9-0.8c-1-0.2-1.7-0.4-2.2-0.6c-0.4-0.2-0.7-0.5-0.7-0.8
		c0-0.3,0.1-0.5,0.3-0.7c0.2-0.2,0.5-0.3,0.9-0.3c0.6,0,1,0.1,1.4,0.4c0.4,0.3,0.6,0.7,0.8,1.2h5c-0.3-1.6-1.1-2.9-2.2-3.9
		c-1.1-0.9-2.6-1.4-4.4-1.4l-6.2,6.2c0.1,0.4,0.3,0.7,0.6,1c0.5,0.6,1.2,1.1,1.9,1.3c0.7,0.3,1.7,0.5,2.8,0.8c1,0.2,1.7,0.4,2.2,0.6
		c0.5,0.2,0.7,0.5,0.7,0.9c0,0.3-0.1,0.5-0.3,0.7c-0.2,0.2-0.5,0.3-0.9,0.3c-0.6,0-1.1-0.1-1.5-0.4c-0.4-0.3-0.6-0.7-0.7-1.2h-5.1
		c0.3,1.7,1,3,2.3,3.9c1.3,0.9,2.9,1.4,5.1,1.4c1.3,0,2.4-0.2,3.3-0.6c0.9-0.4,1.6-0.9,2.1-1.6c0.5-0.7,0.7-1.5,0.7-2.3
		C58.3,57.6,58.1,56.7,57.5,56.1z"/>
	<g>
		<polygon points="43.4,53.6 43.2,53.4 70.4,26.2 70.7,26.6 		"/>
	</g>
	<g>
		<polygon points="23.4,76.1 23,75.7 51.5,47.7 51.7,47.9 		"/>
	</g>
</g>
<g>
	<path d="M42.5,12.8v23.8h-6.6V23.1l-4.4,13.5h-5.7l-4.4-13.5v13.5h-6.6V12.8h8.1l5.9,15.4l5.7-15.4H42.5z"/>
	<path d="M42.4,26h12.5c-0.1-2.1-1-3.2-2.8-3.2c-0.7,0-1.2,0.2-1.6,0.5c-0.4,0.3-0.7,0.7-0.9,1.2h-7c0.2-1.3,0.8-2.5,1.7-3.6
		c0.9-1.1,1.9-1.9,3.2-2.5c1.3-0.6,2.7-0.9,4.3-0.9c1.9,0,3.6,0.4,5,1.2c1.5,0.8,2.6,1.9,3.4,3.4c0.8,1.5,1.2,3.2,1.2,5.2
		c0,2-0.4,3.7-1.2,5.2c-0.8,1.5-1.9,2.6-3.4,3.4c-1.5,0.8-3.1,1.2-5,1.2c-1.9,0-3.6-0.4-5-1.1c-1.4-0.8-2.6-1.9-3.4-3.3
		c-0.8-1.4-1.2-3.1-1.2-4.9C42.2,27,42.3,26.5,42.4,26z M49.7,30.9c0.5,0.5,1.2,0.7,2,0.7c0.9,0,1.6-0.2,2.1-0.7
		c0.6-0.5,0.9-1.2,1-2.2H49C48.9,29.7,49.2,30.4,49.7,30.9z"/>
</g>
</svg>
